<svg width="1200" height="900" viewBox="0 0 1200 900" fill="none" xmlns="http://www.w3.org/2000/svg">
  <rect width="1200" height="900" fill="#0A0C0F"/>
  <rect x="28" y="28" width="1144" height="844" rx="34" stroke="#24282D" stroke-width="4"/>
  <g opacity="0.3">
    <path d="M84 176H1116" stroke="#1E2228"/>
    <path d="M84 298H1116" stroke="#1E2228"/>
    <path d="M84 420H1116" stroke="#1E2228"/>
    <path d="M84 542H1116" stroke="#1E2228"/>
    <path d="M84 664H1116" stroke="#1E2228"/>
  </g>
  <text x="84" y="102" fill="#B7AEA3" font-family="'IBM Plex Mono', monospace" font-size="22" letter-spacing="5">ELUSION WORKS / TOOL TRACK</text>
  <text x="84" y="184" fill="#F2ECE3" font-family="'Newsreader', Georgia, serif" font-size="92" letter-spacing="-2">Published Gallery Pipeline</text>
  <text x="84" y="238" fill="#B7AEA3" font-family="'Manrope', sans-serif" font-size="28">Archive, stage, and deliver published visual work without turning the front-end site into an operations dashboard.</text>
  <rect x="84" y="320" width="310" height="274" rx="28" fill="#12161B" stroke="#2B3138" stroke-width="3"/>
  <rect x="446" y="320" width="310" height="274" rx="28" fill="#12161B" stroke="#2B3138" stroke-width="3"/>
  <rect x="808" y="320" width="308" height="274" rx="28" fill="#12161B" stroke="#2B3138" stroke-width="3"/>
  <rect x="132" y="372" width="214" height="146" rx="18" fill="url(#paint0_linear)"/>
  <rect x="494" y="372" width="214" height="146" rx="18" fill="url(#paint1_linear)"/>
  <rect x="856" y="372" width="214" height="146" rx="18" fill="url(#paint2_linear)"/>
  <text x="132" y="348" fill="#D9A36E" font-family="'IBM Plex Mono', monospace" font-size="20" letter-spacing="4">ARCHIVE</text>
  <text x="494" y="348" fill="#D9A36E" font-family="'IBM Plex Mono', monospace" font-size="20" letter-spacing="4">STAGE</text>
  <text x="856" y="348" fill="#D9A36E" font-family="'IBM Plex Mono', monospace" font-size="20" letter-spacing="4">DELIVER</text>
  <path d="M394 458H446" stroke="#8FD0A6" stroke-width="4" stroke-linecap="round"/>
  <path d="M756 458H808" stroke="#8FD0A6" stroke-width="4" stroke-linecap="round"/>
  <circle cx="394" cy="458" r="9" fill="#8FD0A6"/>
  <circle cx="446" cy="458" r="9" fill="#8FD0A6"/>
  <circle cx="756" cy="458" r="9" fill="#8FD0A6"/>
  <circle cx="808" cy="458" r="9" fill="#8FD0A6"/>
  <text x="84" y="724" fill="#F2ECE3" font-family="'IBM Plex Mono', monospace" font-size="20" letter-spacing="5">MEDIA ARCHIVE</text>
  <text x="326" y="724" fill="#B7AEA3" font-family="'IBM Plex Mono', monospace" font-size="20" letter-spacing="5">QUALITY PASS</text>
  <text x="586" y="724" fill="#8FD0A6" font-family="'IBM Plex Mono', monospace" font-size="20" letter-spacing="5">DELIVERY</text>
  <path d="M84 750H1116" stroke="#24282D" stroke-width="3"/>
  <text x="84" y="804" fill="#B7AEA3" font-family="'Manrope', sans-serif" font-size="24">Built for the image-heavy work behind the portfolio, not for public explanation on every site.</text>
  <defs>
    <linearGradient id="paint0_linear" x1="132" y1="372" x2="346" y2="518" gradientUnits="userSpaceOnUse">
      <stop stop-color="#27231F"/>
      <stop offset="1" stop-color="#191D22"/>
    </linearGradient>
    <linearGradient id="paint1_linear" x1="494" y1="372" x2="708" y2="518" gradientUnits="userSpaceOnUse">
      <stop stop-color="#1C2026"/>
      <stop offset="1" stop-color="#2A2420"/>
    </linearGradient>
    <linearGradient id="paint2_linear" x1="856" y1="372" x2="1070" y2="518" gradientUnits="userSpaceOnUse">
      <stop stop-color="#1A2027"/>
      <stop offset="1" stop-color="#232B33"/>
    </linearGradient>
  </defs>
</svg>
