<svg width="1200" height="900" viewBox="0 0 1200 900" fill="none" xmlns="http://www.w3.org/2000/svg">
  <rect width="1200" height="900" fill="#0A0C10"/>
  <rect x="28" y="28" width="1144" height="844" rx="34" stroke="#24282D" stroke-width="4"/>
  <g opacity="0.32">
    <path d="M140 184H1060" stroke="#1E2228"/>
    <path d="M140 450H1060" stroke="#1E2228"/>
    <path d="M600 184V716" stroke="#1E2228"/>
  </g>
  <text x="84" y="102" fill="#B7AEA3" font-family="'IBM Plex Mono', monospace" font-size="22" letter-spacing="5">ELUSION WORKS / TOOL TRACK</text>
  <text x="84" y="184" fill="#F2ECE3" font-family="'Newsreader', Georgia, serif" font-size="92" letter-spacing="-2">Shared Website Tools</text>
  <text x="84" y="238" fill="#B7AEA3" font-family="'Manrope', sans-serif" font-size="28">Cross-site components, publishing helpers, and shared logic intended to reduce repeated work across the portfolio.</text>
  <rect x="140" y="300" width="300" height="198" rx="26" fill="#12161B" stroke="#2B3138" stroke-width="3"/>
  <rect x="450" y="250" width="300" height="198" rx="26" fill="#12161B" stroke="#2B3138" stroke-width="3"/>
  <rect x="760" y="330" width="300" height="198" rx="26" fill="#12161B" stroke="#2B3138" stroke-width="3"/>
  <rect x="186" y="356" width="208" height="86" rx="18" fill="url(#paint0_linear)"/>
  <rect x="496" y="306" width="208" height="86" rx="18" fill="url(#paint1_linear)"/>
  <rect x="806" y="386" width="208" height="86" rx="18" fill="url(#paint2_linear)"/>
  <path d="M440 398H450" stroke="#8FD0A6" stroke-width="4" stroke-linecap="round"/>
  <path d="M750 398H760" stroke="#8FD0A6" stroke-width="4" stroke-linecap="round"/>
  <circle cx="440" cy="398" r="9" fill="#8FD0A6"/>
  <circle cx="450" cy="398" r="9" fill="#8FD0A6"/>
  <circle cx="750" cy="398" r="9" fill="#8FD0A6"/>
  <circle cx="760" cy="398" r="9" fill="#8FD0A6"/>
  <text x="140" y="560" fill="#F2ECE3" font-family="'IBM Plex Mono', monospace" font-size="20" letter-spacing="5">COMPONENTS</text>
  <text x="450" y="560" fill="#B7AEA3" font-family="'IBM Plex Mono', monospace" font-size="20" letter-spacing="5">AUTOMATION</text>
  <text x="760" y="560" fill="#D9A36E" font-family="'IBM Plex Mono', monospace" font-size="20" letter-spacing="5">PUBLISHING</text>
  <path d="M84 752H1116" stroke="#24282D" stroke-width="3"/>
  <text x="84" y="808" fill="#B7AEA3" font-family="'Manrope', sans-serif" font-size="24">The background layer that helps the sites feel related without forcing them into the same visual voice.</text>
  <defs>
    <linearGradient id="paint0_linear" x1="186" y1="356" x2="394" y2="442" gradientUnits="userSpaceOnUse">
      <stop stop-color="#1C2026"/>
      <stop offset="1" stop-color="#29323B"/>
    </linearGradient>
    <linearGradient id="paint1_linear" x1="496" y1="306" x2="704" y2="392" gradientUnits="userSpaceOnUse">
      <stop stop-color="#23211E"/>
      <stop offset="1" stop-color="#1B2026"/>
    </linearGradient>
    <linearGradient id="paint2_linear" x1="806" y1="386" x2="1014" y2="472" gradientUnits="userSpaceOnUse">
      <stop stop-color="#22211E"/>
      <stop offset="1" stop-color="#2D2620"/>
    </linearGradient>
  </defs>
</svg>
