<svg width="1200" height="630" viewBox="0 0 1200 630" fill="none" xmlns="http://www.w3.org/2000/svg">
  <rect width="1200" height="630" fill="#0F1214"/>
  <rect x="32" y="32" width="1136" height="566" stroke="#2D3740" stroke-width="4"/>
  <g opacity="0.26">
    <path d="M0 105H1200" stroke="#223039"/>
    <path d="M0 210H1200" stroke="#223039"/>
    <path d="M0 315H1200" stroke="#223039"/>
    <path d="M0 420H1200" stroke="#223039"/>
    <path d="M0 525H1200" stroke="#223039"/>
    <path d="M150 0V630" stroke="#223039"/>
    <path d="M300 0V630" stroke="#223039"/>
    <path d="M450 0V630" stroke="#223039"/>
    <path d="M600 0V630" stroke="#223039"/>
    <path d="M750 0V630" stroke="#223039"/>
    <path d="M900 0V630" stroke="#223039"/>
    <path d="M1050 0V630" stroke="#223039"/>
  </g>
  <rect x="84" y="84" width="1032" height="462" rx="28" fill="#14191D" stroke="#303A40" stroke-width="4"/>
  <rect x="124" y="124" width="280" height="280" rx="24" fill="#0C1012" stroke="#374249" stroke-width="4"/>
  <path d="M168 158H302V196H204V232H280V270H204V326H308V364H168V158Z" fill="#F4EFE7"/>
  <path d="M320 178L344 356L386 242L428 356L452 178" stroke="#F46E28" stroke-width="28" stroke-linecap="square" stroke-linejoin="round"/>
  <path d="M124 448H410" stroke="#80DDF7" stroke-width="6"/>
  <text x="472" y="228" fill="#F4EFE7" font-family="'IBM Plex Sans', Arial, sans-serif" font-size="82" font-weight="700">Elusion Works</text>
  <text x="472" y="300" fill="#C0B8AC" font-family="'IBM Plex Sans', Arial, sans-serif" font-size="34">
    Websites, tools, hubs, and games under one crafted digital brand.
  </text>
  <text x="472" y="402" fill="#80DDF7" font-family="'IBM Plex Mono', monospace" font-size="24" letter-spacing="5">DIGITAL FORGE / ESTATE INDEX / V1</text>
  <text x="472" y="466" fill="#F46E28" font-family="'IBM Plex Mono', monospace" font-size="24" letter-spacing="5">ELUSIONWORKS.COM</text>
</svg>
