<svg width="1200" height="630" viewBox="0 0 1200 630" fill="none" xmlns="http://www.w3.org/2000/svg">
  <rect width="1200" height="630" fill="#0A0C0F"/>
  <rect x="24" y="24" width="1152" height="582" rx="32" stroke="#23282E" stroke-width="4"/>
  <g opacity="0.22">
    <path d="M0 126H1200" stroke="#1C2126"/>
    <path d="M0 252H1200" stroke="#1C2126"/>
    <path d="M0 378H1200" stroke="#1C2126"/>
    <path d="M0 504H1200" stroke="#1C2126"/>
    <path d="M171 0V630" stroke="#1C2126"/>
    <path d="M342 0V630" stroke="#1C2126"/>
    <path d="M513 0V630" stroke="#1C2126"/>
    <path d="M684 0V630" stroke="#1C2126"/>
    <path d="M855 0V630" stroke="#1C2126"/>
    <path d="M1026 0V630" stroke="#1C2126"/>
  </g>
  <circle cx="196" cy="116" r="52" fill="url(#paint0_radial)"/>
  <rect x="72" y="72" width="88" height="88" rx="24" fill="#12161B" stroke="#2A3037" stroke-width="3"/>
  <path d="M95 96H135L114 141L95 96Z" fill="#F2ECE3"/>
  <path d="M110 108H123L114 126L110 108Z" fill="#0A0C0F"/>
  <path d="M138 96H154L136 141H120L138 96Z" fill="#F2ECE3"/>
  <text x="186" y="104" fill="#B7AEA3" font-family="'IBM Plex Mono', monospace" font-size="18" letter-spacing="5">ELUSION</text>
  <text x="186" y="136" fill="#F2ECE3" font-family="'IBM Plex Mono', monospace" font-size="32" font-weight="700" letter-spacing="7">WORKS</text>
  <text x="72" y="244" fill="#F2ECE3" font-family="'Newsreader', Georgia, serif" font-size="82" letter-spacing="-2">Websites, tools,</text>
  <text x="72" y="318" fill="#F2ECE3" font-family="'Newsreader', Georgia, serif" font-size="82" letter-spacing="-2">and game ideas</text>
  <text x="72" y="392" fill="#F2ECE3" font-family="'Newsreader', Georgia, serif" font-size="82" letter-spacing="-2">under one</text>
  <text x="72" y="466" fill="#F2ECE3" font-family="'Newsreader', Georgia, serif" font-size="82" letter-spacing="-2">evolving banner.</text>
  <text x="72" y="542" fill="#B7AEA3" font-family="'Manrope', sans-serif" font-size="24">A quieter public showcase for sites, systems, and experiments in progress.</text>
  <rect x="742" y="110" width="160" height="168" rx="26" fill="#13171C" stroke="#2A3037" stroke-width="3"/>
  <rect x="924" y="110" width="160" height="168" rx="26" fill="#13171C" stroke="#2A3037" stroke-width="3"/>
  <rect x="742" y="300" width="160" height="168" rx="26" fill="#13171C" stroke="#2A3037" stroke-width="3"/>
  <rect x="924" y="300" width="160" height="168" rx="26" fill="#13171C" stroke="#2A3037" stroke-width="3"/>
  <rect x="766" y="134" width="112" height="120" rx="18" fill="url(#paint1_linear)"/>
  <rect x="948" y="134" width="112" height="120" rx="18" fill="url(#paint2_linear)"/>
  <rect x="766" y="324" width="112" height="120" rx="18" fill="url(#paint3_linear)"/>
  <rect x="948" y="324" width="112" height="120" rx="18" fill="url(#paint4_linear)"/>
  <path d="M818 528H1084" stroke="#2A3037" stroke-width="3"/>
  <text x="818" y="566" fill="#F2ECE3" font-family="'IBM Plex Mono', monospace" font-size="18" letter-spacing="5">WEBSITES / TOOLS / GAMES</text>
  <text x="818" y="602" fill="#D7A16F" font-family="'IBM Plex Mono', monospace" font-size="18" letter-spacing="5">SHOWCASE IN BUILD</text>
  <defs>
    <radialGradient id="paint0_radial" cx="0" cy="0" r="1" gradientUnits="userSpaceOnUse" gradientTransform="translate(196 116) rotate(90) scale(52)">
      <stop stop-color="#D7A16F" stop-opacity="0.36"/>
      <stop offset="1" stop-color="#D7A16F" stop-opacity="0"/>
    </radialGradient>
    <linearGradient id="paint1_linear" x1="766" y1="134" x2="878" y2="254" gradientUnits="userSpaceOnUse">
      <stop stop-color="#3B2A20"/>
      <stop offset="1" stop-color="#1A1E23"/>
    </linearGradient>
    <linearGradient id="paint2_linear" x1="948" y1="134" x2="1060" y2="254" gradientUnits="userSpaceOnUse">
      <stop stop-color="#2A1E24"/>
      <stop offset="1" stop-color="#1A1E23"/>
    </linearGradient>
    <linearGradient id="paint3_linear" x1="766" y1="324" x2="878" y2="444" gradientUnits="userSpaceOnUse">
      <stop stop-color="#1F232A"/>
      <stop offset="1" stop-color="#2B241F"/>
    </linearGradient>
    <linearGradient id="paint4_linear" x1="948" y1="324" x2="1060" y2="444" gradientUnits="userSpaceOnUse">
      <stop stop-color="#1C2229"/>
      <stop offset="1" stop-color="#23313A"/>
    </linearGradient>
  </defs>
</svg>
