<svg width="1200" height="630" viewBox="0 0 1200 630" fill="none" xmlns="http://www.w3.org/2000/svg">
  <rect width="1200" height="630" fill="#0A0C0F"/>
  <rect x="24" y="24" width="1152" height="582" rx="32" stroke="#23282E" stroke-width="4"/>
  <g opacity="0.22">
    <path d="M0 126H1200" stroke="#1C2126"/>
    <path d="M0 252H1200" stroke="#1C2126"/>
    <path d="M0 378H1200" stroke="#1C2126"/>
    <path d="M0 504H1200" stroke="#1C2126"/>
    <path d="M171 0V630" stroke="#1C2126"/>
    <path d="M342 0V630" stroke="#1C2126"/>
    <path d="M513 0V630" stroke="#1C2126"/>
    <path d="M684 0V630" stroke="#1C2126"/>
    <path d="M855 0V630" stroke="#1C2126"/>
    <path d="M1026 0V630" stroke="#1C2126"/>
  </g>
  <circle cx="196" cy="116" r="52" fill="url(#paint0_radial)"/>
  <rect x="72" y="72" width="88" height="88" rx="24" fill="#12161B" stroke="#2A3037" stroke-width="3"/>
  <path d="M95 96H135L114 141L95 96Z" fill="#F2ECE3"/>
  <path d="M110 108H123L114 126L110 108Z" fill="#0A0C0F"/>
  <path d="M138 96H154L136 141H120L138 96Z" fill="#F2ECE3"/>
  <text x="186" y="104" fill="#B7AEA3" font-family="'IBM Plex Mono', monospace" font-size="18" letter-spacing="5">ELUSION</text>
  <text x="186" y="136" fill="#F2ECE3" font-family="'IBM Plex Mono', monospace" font-size="32" font-weight="700" letter-spacing="7">WORKS</text>
  <text x="72" y="244" fill="#F2ECE3" font-family="'Newsreader', Georgia, serif" font-size="86" letter-spacing="-2">The company</text>
  <text x="72" y="320" fill="#F2ECE3" font-family="'Newsreader', Georgia, serif" font-size="86" letter-spacing="-2">behind a growing</text>
  <text x="72" y="396" fill="#F2ECE3" font-family="'Newsreader', Georgia, serif" font-size="86" letter-spacing="-2">portfolio of</text>
  <text x="72" y="472" fill="#F2ECE3" font-family="'Newsreader', Georgia, serif" font-size="86" letter-spacing="-2">digital products.</text>
  <text x="72" y="542" fill="#B7AEA3" font-family="'Manrope', sans-serif" font-size="26">Websites, tools, and future games under one clear company brand.</text>
  <rect x="748" y="112" width="360" height="238" rx="30" fill="#12161B" stroke="#2A3037" stroke-width="3"/>
  <rect x="748" y="386" width="112" height="132" rx="24" fill="#12161B" stroke="#2A3037" stroke-width="3"/>
  <rect x="880" y="386" width="112" height="132" rx="24" fill="#12161B" stroke="#2A3037" stroke-width="3"/>
  <rect x="1012" y="386" width="96" height="132" rx="24" fill="#12161B" stroke="#2A3037" stroke-width="3"/>
  <rect x="782" y="146" width="292" height="170" rx="24" fill="url(#paint1_linear)"/>
  <rect x="782" y="146" width="292" height="170" rx="24" fill="url(#paint2_radial)" fill-opacity="0.6"/>
  <text x="782" y="348" fill="#F2ECE3" font-family="'IBM Plex Mono', monospace" font-size="18" letter-spacing="4">REFERENCE HUB</text>
  <text x="782" y="376" fill="#F2ECE3" font-family="'Manrope', sans-serif" font-size="28" font-weight="700">AI Resource Hub</text>
  <rect x="770" y="408" width="68" height="10" rx="5" fill="#D9A36E"/>
  <rect x="770" y="432" width="40" height="40" rx="12" fill="#1D232A"/>
  <rect x="902" y="408" width="68" height="10" rx="5" fill="#A1B0BB"/>
  <rect x="902" y="432" width="40" height="40" rx="12" fill="#1D232A"/>
  <rect x="1034" y="408" width="48" height="10" rx="5" fill="#8FD0A6"/>
  <rect x="1034" y="432" width="40" height="40" rx="12" fill="#1D232A"/>
  <text x="770" y="494" fill="#F2ECE3" font-family="'IBM Plex Mono', monospace" font-size="16" letter-spacing="4">WEBSITES</text>
  <text x="902" y="494" fill="#F2ECE3" font-family="'IBM Plex Mono', monospace" font-size="16" letter-spacing="4">TOOLS</text>
  <text x="1034" y="494" fill="#F2ECE3" font-family="'IBM Plex Mono', monospace" font-size="16" letter-spacing="4">GAMES</text>
  <path d="M748 556H1108" stroke="#2A3037" stroke-width="3"/>
  <text x="748" y="590" fill="#D9A36E" font-family="'IBM Plex Mono', monospace" font-size="18" letter-spacing="5">ELUSIONWORKS.COM</text>
  <defs>
    <radialGradient id="paint0_radial" cx="0" cy="0" r="1" gradientUnits="userSpaceOnUse" gradientTransform="translate(196 116) rotate(90) scale(52)">
      <stop stop-color="#D9A36E" stop-opacity="0.36"/>
      <stop offset="1" stop-color="#D9A36E" stop-opacity="0"/>
    </radialGradient>
    <linearGradient id="paint1_linear" x1="782" y1="146" x2="1074" y2="316" gradientUnits="userSpaceOnUse">
      <stop stop-color="#2E221A"/>
      <stop offset="1" stop-color="#171B20"/>
    </linearGradient>
    <radialGradient id="paint2_radial" cx="0" cy="0" r="1" gradientUnits="userSpaceOnUse" gradientTransform="translate(845 174) rotate(47.8) scale(190 158)">
      <stop stop-color="#D9A36E" stop-opacity="0.24"/>
      <stop offset="1" stop-color="#D9A36E" stop-opacity="0"/>
    </radialGradient>
  </defs>
</svg>
